<svg width="107" height="54" viewBox="0 0 107 54" fill="none" xmlns="http://www.w3.org/2000/svg">
<path fill-rule="evenodd" clip-rule="evenodd" d="M31 38C26.5887 38 23 41.5895 23 46.0014C23 50.4105 26.5887 54 31 54C35.4113 54 39 50.4105 39 46.0014C39 41.5895 35.4113 38 31 38Z" fill="#FDB812"/>
<path fill-rule="evenodd" clip-rule="evenodd" d="M9.00009 38C4.58886 38 1 41.5895 1 46.0014C1 50.4105 4.58886 54 9.00009 54C13.4111 54 17 50.4105 17 46.0014C17 41.5895 13.4111 38 9.00009 38Z" fill="#FF2938"/>
<mask id="mask0" mask-type="alpha" maskUnits="userSpaceOnUse" x="46" y="38" width="16" height="17">
<path fill-rule="evenodd" clip-rule="evenodd" d="M46.1567 38.0203H61.961V54.0001H46.1567V38.0203Z" fill="white"/>
</mask>
<g mask="url(#mask0)">
<path fill-rule="evenodd" clip-rule="evenodd" d="M54.059 38.0203C49.7017 38.0203 46.1567 41.6046 46.1567 46.0101C46.1567 50.4128 49.7017 54.0002 54.059 54.0002C58.4161 54.0002 61.961 50.4128 61.961 46.0101C61.961 41.6046 58.4161 38.0203 54.059 38.0203Z" fill="#00B057"/>
</g>
<path fill-rule="evenodd" clip-rule="evenodd" d="M98.0015 38C93.5895 38 90 41.5895 90 46.0014C90 50.4105 93.5895 54 98.0015 54C102.413 54 106 50.4105 106 46.0014C106 41.5895 102.413 38 98.0015 38Z" fill="#00AAE0"/>
<path fill-rule="evenodd" clip-rule="evenodd" d="M75.9999 38C71.5889 38 68 41.5895 68 46.0014C68 50.4105 71.5889 54 75.9999 54C80.4111 54 84 50.4105 84 46.0014C84 41.5895 80.4111 38 75.9999 38Z" fill="#AF38B1"/>
<mask id="mask1" mask-type="alpha" maskUnits="userSpaceOnUse" x="0" y="7" width="19" height="18">
<path fill-rule="evenodd" clip-rule="evenodd" d="M0 7.06372H18.9174V24.9606H0V7.06372Z" fill="white"/>
</mask>
<g mask="url(#mask1)">
<path fill-rule="evenodd" clip-rule="evenodd" d="M0 15.907C0 10.867 4.22604 7.06372 9.45871 7.06372C14.6916 7.06372 18.9174 10.8322 18.9174 15.8724V23.418C18.9174 24.3089 18.2754 24.9606 17.2717 24.9606C16.2318 24.9606 15.6229 24.3089 15.6229 23.418V21.5986H15.4088C14.366 23.3459 12.2559 24.7502 9.20861 24.7502C4.15662 24.7502 0 20.947 0 15.907ZM15.6953 15.907C15.6953 12.5161 13.0095 9.94424 9.45871 9.94424C5.91101 9.94424 3.22525 12.5161 3.22525 15.907C3.22525 19.3035 5.91101 21.8697 9.45871 21.8697C13.0095 21.8697 15.6953 19.3035 15.6953 15.907Z" fill="white"/>
</g>
<path fill-rule="evenodd" clip-rule="evenodd" d="M25.4778 30.8107C24.6607 30.3936 24.2822 29.6594 24.6263 28.8195C24.999 27.9475 25.8161 27.6332 26.6018 28.0502C27.7946 28.611 29.2595 28.9959 30.7276 28.9959C34.5782 28.9959 36.8633 26.6934 36.8633 22.7788V21.8037H36.6569C35.6705 23.5835 33.6578 25.0136 30.7592 25.0136C25.9566 25.0136 22 21.14 22 16.0067C22 10.8735 26.0254 7 31.0029 7C35.9745 7 40 10.8382 40 15.9715V22.5704C40 28.1589 36.4188 32 30.6244 32C28.8209 32 27.0117 31.6123 25.4778 30.8107ZM36.9321 16.0067C36.9321 12.5532 34.3747 9.93366 31.0029 9.93366C27.6253 9.93366 25.0679 12.5532 25.0679 16.0067C25.0679 19.4633 27.6253 22.0798 31.0029 22.0798C34.3747 22.0798 36.9321 19.4633 36.9321 16.0067Z" fill="white"/>
<path fill-rule="evenodd" clip-rule="evenodd" d="M45 16C45 10.8707 48.9867 7 54 7C58.9791 7 63 10.8707 63 16C63 21.1293 58.9791 25 54 25C48.9867 25 45 21.1293 45 16ZM59.9341 16C59.9341 12.5491 57.3786 9.93159 54 9.93159C50.6242 9.93159 48.0688 12.5491 48.0688 16C48.0688 19.4568 50.6242 22.0684 54 22.0684C57.3786 22.0684 59.9341 19.4568 59.9341 16Z" fill="white"/>
<path fill-rule="evenodd" clip-rule="evenodd" d="M67 16.029C67 10.9162 70.9567 7.05796 75.7591 7.05796C78.6577 7.05796 80.6362 8.48243 81.6567 10.2551H81.8632V1.56487C81.8632 0.661086 82.4738 0 83.4315 0C84.4179 0 85 0.661086 85 1.56487V16.0641C85 21.1769 80.9745 25 76.0028 25C71.0255 25 67 21.1418 67 16.029ZM81.932 16.029C81.932 12.5892 79.3745 9.98011 76.0028 9.98011C72.6255 9.98011 70.0678 12.5892 70.0678 16.029C70.0678 19.4746 72.6255 22.0779 76.0028 22.0779C79.3745 22.0779 81.932 19.4746 81.932 16.029Z" fill="white"/>
<path fill-rule="evenodd" clip-rule="evenodd" d="M89 15.8942C89 10.8252 93.0209 7 98 7C102.979 7 107 10.7902 107 15.8594V23.4485C107 24.3446 106.389 25 105.431 25C104.444 25 103.865 24.3446 103.865 23.4485V21.6187H103.662C102.669 23.3759 100.662 24.7884 97.7618 24.7884C92.9521 24.7884 89 20.9632 89 15.8942ZM103.931 15.8942C103.931 12.4838 101.376 9.89712 98 9.89712C94.6243 9.89712 92.0688 12.4838 92.0688 15.8942C92.0688 19.3103 94.6243 21.8913 98 21.8913C101.376 21.8913 103.931 19.3103 103.931 15.8942Z" fill="white"/>
</svg>
