<svg width="120" height="20" viewBox="0 0 120 20" fill="none" xmlns="http://www.w3.org/2000/svg">
<path d="M47.0203 1.8013C47.0275 0.801029 47.8429 -0.00473388 48.8431 2.09358e-05C49.8434 0.00477575 50.6511 0.818254 50.6488 1.81854C50.6464 2.81883 49.8349 3.62848 48.8346 3.62851C48.3511 3.62852 47.8877 3.4356 47.5471 3.09255C47.2065 2.74951 47.0169 2.28471 47.0203 1.8013Z" fill="white"/>
<path fill-rule="evenodd" clip-rule="evenodd" d="M22.8699 10.1365C22.8699 6.8423 20.4492 4.45007 17.1188 4.45007C13.7987 4.45007 11.3883 6.8423 11.3883 10.1365C11.3883 13.4306 13.7987 15.8229 17.1188 15.8229C20.4388 15.8229 22.8699 13.4306 22.8699 10.1365ZM14.4596 10.1365C14.4596 8.3559 15.5507 7.10925 17.1188 7.10925C18.6868 7.10925 19.7987 8.3559 19.7987 10.1365C19.7987 11.917 18.7179 13.1611 17.1188 13.1611C15.5481 13.1611 14.4596 11.917 14.4596 10.1365Z" fill="white"/>
<path d="M43.4903 10.419C43.3747 10.1994 43.229 9.99701 43.0575 9.81767L42.9564 9.7114L43.0627 9.61032C43.2307 9.43294 43.3842 9.24225 43.5214 9.04013L46.4502 4.68333H42.8942L40.6912 8.08117C40.5668 8.26259 40.3154 8.3559 39.9396 8.3559H39.4368V1.91529C39.4368 0.619394 38.6359 0.450928 37.7703 0.450928H36.2852V15.6544H39.4368V11.0928H39.7348C40.0925 11.0928 40.3361 11.1343 40.4502 11.3313L42.1867 14.6125C42.6739 15.5015 43.1586 15.6492 44.0683 15.6492H46.4839L44.6852 12.6686L43.4903 10.419Z" fill="white"/>
<path d="M58.7897 4.42418C57.5858 4.3943 56.4245 4.87102 55.5888 5.73821L55.3996 5.9326L55.3323 5.67342C55.1638 5.02806 54.5962 4.67299 53.7409 4.67299H52.3284V15.6518H55.4644V10.5952C55.4573 10.1485 55.5238 9.70367 55.6614 9.2786C55.9606 8.12896 57.0084 7.33397 58.1962 7.35549C59.1733 7.35549 59.5543 7.87385 59.5543 9.20344V13.9801C59.5543 15.1179 60.0726 15.6492 61.2182 15.6492H62.7215V8.66694C62.7033 5.89113 61.3504 4.42418 58.7897 4.42418Z" fill="white"/>
<path d="M48.8785 4.67554H47.396V13.1637V15.6518H50.5061V6.34724C50.5398 5.21981 49.9904 4.67554 48.8785 4.67554Z" fill="white"/>
<path fill-rule="evenodd" clip-rule="evenodd" d="M35.1628 10.1365C35.1628 6.8423 32.7395 4.45007 29.4116 4.45007C26.089 4.45007 23.6786 6.8423 23.6786 10.1365C23.6786 13.4306 26.089 15.8229 29.4116 15.8229C32.7343 15.8229 35.1628 13.4306 35.1628 10.1365ZM26.7499 10.1365C26.7499 8.3559 27.8436 7.10925 29.4116 7.10925C30.9797 7.10925 32.0915 8.3559 32.0915 10.1365C32.0915 11.917 31.0134 13.1611 29.4116 13.1611C27.8566 13.1611 26.7499 11.917 26.7499 10.1365Z" fill="white"/>
<path fill-rule="evenodd" clip-rule="evenodd" d="M71.522 5.32251C71.0189 4.89231 70.1234 4.40088 68.6824 4.40088C65.7563 4.40088 63.7839 6.59872 63.7839 9.86956C63.7839 13.1404 65.8315 15.4212 68.7498 15.4212C69.609 15.4616 70.4569 15.2124 71.1576 14.7136L71.3986 14.5348V14.838L71.3978 14.9133C71.3657 16.3327 70.4204 17.1162 68.7317 17.1162C68.0123 17.1069 67.2998 16.9754 66.6245 16.7274C65.961 16.5279 65.5723 16.6912 65.3027 17.3572L65.0435 17.9741L64.6937 18.8709L64.9114 18.9875L65.0491 19.0564C66.2012 19.6198 67.466 19.9172 68.7498 19.9257C71.4142 19.9257 74.5269 18.5598 74.5269 14.7188V4.64969L73.0885 4.63414L73.0277 4.63032C72.522 4.60986 72.0445 4.87294 71.7926 5.31578L71.707 5.48166L71.522 5.32251ZM69.1386 7.15336L69.1791 7.15352C70.1694 7.16146 71.4582 7.47145 71.4582 9.87993C71.4582 12.1273 70.3537 12.6397 69.3903 12.6675L69.3045 12.6687C67.5939 12.6687 66.9848 11.1758 66.9848 9.77626L66.9852 9.71853C66.9955 9.04558 67.1991 7.15336 69.1386 7.15336Z" fill="white"/>
<path fill-rule="evenodd" clip-rule="evenodd" d="M5.18359 0.45874C8.0219 0.45874 9.86519 1.9652 9.90767 4.30497L9.90842 4.3879C9.93907 5.44994 9.50834 6.47146 8.73052 7.1905L8.65659 7.25701L8.25486 7.60172L8.7162 7.8609C9.83326 8.48811 10.4994 9.72699 10.4994 11.1732C10.4994 13.8342 8.48596 15.5596 5.35461 15.5968L5.25097 15.5974H0V2.04233C0.00753675 1.20781 0.65453 0.523077 1.48025 0.462033L1.53952 0.45874H5.18359ZM5.46091 8.92094H3.72441C3.19076 8.99611 2.93078 9.31346 2.91404 9.9245L2.91317 9.98876V13.0367H5.46091C6.72311 13.0367 7.50324 12.2384 7.50324 10.9685C7.50324 9.72244 6.73231 8.95046 5.53071 8.92177L5.46091 8.92094ZM3.86177 2.93909H5.15767L5.22706 2.93995C6.30489 2.96714 6.946 3.63109 6.946 4.72742C6.946 5.58272 6.48726 6.57796 5.19914 6.57796H2.91317V4.01727L2.91405 3.95273C2.93215 3.29672 3.23156 2.97926 3.86177 2.93909Z" fill="white"/>
<path d="M75.7659 13.9645C75.7659 12.9625 76.5781 12.1503 77.5801 12.1503C78.5821 12.1503 79.3944 12.9625 79.3944 13.9645C79.3944 14.9665 78.5821 15.7788 77.5801 15.7788C76.5781 15.7788 75.7659 14.9665 75.7659 13.9645Z" fill="#00ADEE"/>
<path fill-rule="evenodd" clip-rule="evenodd" d="M102.251 10.1365C102.251 6.8423 99.828 4.45007 96.5001 4.45007C93.1775 4.45007 90.7671 6.8423 90.7671 10.1365C90.7671 13.4306 93.1775 15.8229 96.5001 15.8229C99.8228 15.8229 102.251 13.4306 102.251 10.1365ZM93.8384 10.1365C93.8384 8.3559 94.9295 7.10925 96.5001 7.10925C98.0708 7.10925 99.18 8.3559 99.18 10.1365C99.18 11.917 98.0993 13.1611 96.5001 13.1611C94.9295 13.1611 93.8384 11.917 93.8384 10.1365Z" fill="#00ADEE"/>
<path d="M116.232 4.46045C114.92 4.46328 113.68 5.06212 112.862 6.0881L112.634 6.37578L112.458 6.0544C111.877 4.99695 110.879 4.46045 109.493 4.46045C108.393 4.47341 107.348 4.94281 106.608 5.75635L106.313 6.07514L106.199 5.65267C106.033 5.04619 105.491 4.70926 104.67 4.70926H103.355L103.343 15.6466H106.341V10.8207C106.342 10.3889 106.396 9.95892 106.502 9.54036C106.787 8.37406 107.57 7.11963 108.889 7.24403C109.7 7.32438 110.099 7.95159 110.099 9.16455V15.644H113.108V10.8207C113.097 10.3741 113.154 9.92836 113.277 9.49889C113.518 8.38442 114.337 7.24403 115.609 7.24403C116.53 7.24403 116.872 7.76239 116.872 9.16455V14.0501C116.872 15.1542 117.362 15.6466 118.466 15.6466H119.873V8.66693C119.878 5.87557 118.65 4.46045 116.232 4.46045Z" fill="#00ADEE"/>
<path d="M89.0384 11.8522C89.0384 11.8522 87.7425 13.2181 86.0474 13.2181C84.5053 13.2181 82.9373 12.2721 82.9373 10.1572C82.9373 8.34295 84.1451 7.04706 85.8738 7.04706C86.4362 7.04706 87.0764 7.24922 87.1697 7.58615L87.1852 7.64317C87.3157 8.12316 87.753 8.45513 88.2505 8.45181H89.8885V7.0341C89.8885 5.14468 87.4859 4.46045 85.8686 4.46045C82.4137 4.46045 79.9075 6.86563 79.9075 10.1805C79.9075 13.4954 82.3878 15.8954 85.809 15.8954C87.5495 15.9139 89.2174 15.199 90.4042 13.9257L90.4898 13.8194L89.1939 11.6682L89.0384 11.8522Z" fill="#00ADEE"/>
</svg>
