<svg width="120" height="23" viewBox="0 0 120 23" fill="none" xmlns="http://www.w3.org/2000/svg">
<path fill-rule="evenodd" clip-rule="evenodd" d="M107.595 3.03799C106.876 3.03799 106.329 2.49129 106.329 1.77268C106.329 1.05386 106.876 0.506348 107.595 0.506348C108.314 0.506348 108.861 1.05386 108.861 1.77268C108.861 2.49129 108.314 3.03799 107.595 3.03799ZM107.595 0.731016C107.002 0.731016 106.553 1.17995 106.553 1.77268C106.553 2.3644 107.002 2.81312 107.595 2.81312C108.188 2.81312 108.637 2.3644 108.637 1.77268C108.637 1.17995 108.188 0.731016 107.595 0.731016ZM107.925 1.8953L108.191 2.43854H107.862L107.613 1.93359H107.374V2.43854H107.083V1.05733H107.725C107.991 1.05733 108.198 1.19685 108.198 1.49159C108.198 1.73011 108.072 1.83908 107.925 1.8953ZM107.704 1.32375H107.374V1.67715H107.704C107.83 1.67715 107.9 1.61421 107.9 1.49831C107.9 1.37569 107.827 1.32375 107.704 1.32375Z" fill="#B5B5B6"/>
<mask id="mask0" mask-type="alpha" maskUnits="userSpaceOnUse" x="0" y="0" width="120" height="23">
<path fill-rule="evenodd" clip-rule="evenodd" d="M0 22.2785H120V0H0V22.2785Z" fill="white"/>
</mask>
<g mask="url(#mask0)">
<path fill-rule="evenodd" clip-rule="evenodd" d="M0 22.2785H22.2785V0H0V22.2785Z" fill="#FF690F"/>
<path fill-rule="evenodd" clip-rule="evenodd" d="M23.2911 22.2785H45.5696V0H23.2911V22.2785Z" fill="#FF690F"/>
<path fill-rule="evenodd" clip-rule="evenodd" d="M47.0886 22.2785H69.3671V0H47.0886V22.2785Z" fill="#FF690F"/>
<path fill-rule="evenodd" clip-rule="evenodd" d="M70.3798 22.2785H92.6582V0H70.3798V22.2785Z" fill="#FF690F"/>
<path fill-rule="evenodd" clip-rule="evenodd" d="M94.1772 22.2785H116.456V0H94.1772V22.2785Z" fill="#FF690F"/>
<path fill-rule="evenodd" clip-rule="evenodd" d="M34.6422 8.75984L33.3559 12.9182H35.9285L34.6422 8.75984ZM32.6975 15.1057L32.2192 16.7088H29.3671L32.9937 5.56958H36.3901L40 16.7088H37.0654L36.5871 15.1057H32.6975Z" fill="white"/>
<path fill-rule="evenodd" clip-rule="evenodd" d="M81.7309 8.75984L80.4446 12.9182H83.0172L81.7309 8.75984ZM79.7853 15.1057L79.3077 16.7088H76.4557L80.0825 5.56958H83.4785L87.0886 16.7088H84.1541L83.6756 15.1057H79.7853Z" fill="white"/>
<path fill-rule="evenodd" clip-rule="evenodd" d="M59.6274 16.7088H56.8789V11.7997L53.1646 5.56958H56.4384L58.2705 8.9932L60.0687 5.56958H63.2911L59.6274 11.7997V16.7088Z" fill="white"/>
<path fill-rule="evenodd" clip-rule="evenodd" d="M7.08862 16.7088H9.62027V5.56958H7.08862V16.7088Z" fill="white"/>
<path fill-rule="evenodd" clip-rule="evenodd" d="M15.1898 16.7088H12.1995L9.11389 11.1396L12.1995 5.56958H15.1898L12.0857 11.1396L15.1898 16.7088Z" fill="white"/>
<path fill-rule="evenodd" clip-rule="evenodd" d="M100.76 16.7088H103.291V5.56958H100.76V16.7088Z" fill="white"/>
<path fill-rule="evenodd" clip-rule="evenodd" d="M109.367 16.7088H106.377L103.291 11.1396L106.377 5.56958H109.367L106.263 11.1396L109.367 16.7088Z" fill="white"/>
<path fill-rule="evenodd" clip-rule="evenodd" d="M118.498 1.2058H118.725C118.919 1.2058 119.011 1.12897 119.011 0.967962C119.011 0.811506 118.926 0.738178 118.747 0.738178H118.498V1.2058ZM118.795 0.551621C119.132 0.551621 119.312 0.690751 119.312 0.946786C119.312 1.10709 119.227 1.22767 119.069 1.29347C119.238 1.36313 119.282 1.4508 119.289 1.75007C119.297 1.86715 119.307 1.92577 119.326 1.96515H119.036C119.018 1.92577 119.011 1.88185 119 1.68794C118.982 1.45378 118.923 1.39603 118.7 1.385H118.498V1.96515H118.198V0.551621H118.795ZM117.707 1.26792C117.707 1.84159 118.168 2.31271 118.736 2.31271C119.301 2.31271 119.762 1.84527 119.762 1.26792C119.762 0.694426 119.304 0.219458 118.751 0.219458C118.165 0.219458 117.707 0.679726 117.707 1.26792ZM120 1.26792C120 1.96515 119.432 2.53165 118.736 2.53165C118.036 2.53165 117.468 1.96515 117.468 1.26792C117.468 0.558971 118.033 0 118.755 0C119.436 0 120 0.573672 120 1.26792Z" fill="#FF690F"/>
</g>
</svg>
