<svg width="121" height="27" viewBox="0 0 121 27" fill="none" xmlns="http://www.w3.org/2000/svg">
<path fill-rule="evenodd" clip-rule="evenodd" d="M0.5 13.3175C0.5 11.4791 1.98935 9.98832 3.82692 9.98832C5.66421 9.98832 7.15439 11.4791 7.15439 13.3175C7.15439 15.1564 5.66421 16.6472 3.82692 16.6472C1.98935 16.6472 0.5 15.1564 0.5 13.3175ZM23.8703 16.6472C22.033 16.6472 20.5436 15.1564 20.5436 13.3175C20.5436 11.4791 22.033 9.98832 23.8703 9.98832C25.7078 9.98832 27.198 11.4791 27.198 13.3175C27.198 15.1564 25.7078 16.6472 23.8703 16.6472ZM23.8706 0C16.5208 0 10.5621 5.96299 10.5621 13.3175C10.5621 20.6731 16.5208 26.6355 23.8706 26.6355C31.2214 26.6355 37.1793 20.6731 37.1793 13.3175C37.1793 5.96299 31.2214 0 23.8706 0Z" fill="#DA3743"/>
<path fill-rule="evenodd" clip-rule="evenodd" d="M118.99 12.2873C119.2 12.2873 119.325 12.1931 119.325 12.0218C119.325 11.8667 119.239 11.7649 119.005 11.7649H118.787V12.2873H118.99ZM118.468 11.5003H119.059C119.386 11.5003 119.667 11.6326 119.667 12.0066C119.667 12.1931 119.55 12.3731 119.379 12.4348L119.737 13.0816H119.379L119.106 12.5365H118.787V13.0816H118.468V11.5003ZM120.188 12.3103C120.188 11.5785 119.682 11.0562 119.029 11.0562C118.375 11.0562 117.877 11.5785 117.877 12.3103C117.877 13.0505 118.375 13.5565 119.029 13.5565C119.682 13.5565 120.188 13.0505 120.188 12.3103ZM117.565 12.3103C117.565 11.3988 118.226 10.7752 119.029 10.7752C119.838 10.7752 120.5 11.3988 120.5 12.3103C120.5 13.2218 119.838 13.8448 119.029 13.8448C118.226 13.8448 117.565 13.2218 117.565 12.3103ZM107.798 18.5399C107.995 18.5399 108.162 18.3756 108.162 18.1785V16.8417C108.162 16.6443 107.998 16.48 107.8 16.48H107.742C107.579 16.48 107.416 16.3176 107.416 16.1542L107.416 16.0953V8.23307C107.416 8.05223 107.235 7.87139 107.055 7.87139H105.724C105.543 7.87139 105.363 8.05223 105.363 8.23307V17.0074L105.368 17.2362C105.368 17.8891 106.021 18.5419 106.673 18.5419L107.798 18.5399ZM49.2463 9.96382C51.0559 9.96382 52.5834 11.498 52.5834 13.3171C52.5834 15.1524 51.0862 16.6426 49.2463 16.6426C47.4147 16.6426 45.9253 15.1524 45.9253 13.3171C45.9253 11.468 47.4147 9.96382 49.2463 9.96382ZM49.2463 7.85176C46.2511 7.85176 43.8149 10.3036 43.8149 13.3171C43.8149 16.3659 46.1992 18.7547 49.2463 18.7547C52.3016 18.7547 54.6943 16.3659 54.6943 13.3171C54.6943 10.3036 52.2494 7.85176 49.2463 7.85176ZM92.5882 16.3743C92.4895 16.6538 91.8985 17.1798 91.225 17.1798C90.5188 17.1798 90.1246 16.7522 90.1246 16.1113C90.1246 15.4373 90.6006 15.0265 91.4715 15.0265C92.0793 15.0265 92.5882 15.2564 92.5882 15.2564V16.3743ZM91.7014 10.7693C90.4691 10.7693 89.2703 11.0817 89.106 11.1476C88.9417 11.1966 88.7939 11.3281 88.8595 11.6076L89.0238 12.4625C89.0566 12.6924 89.2047 12.8733 89.4511 12.7911C89.8947 12.6596 90.8964 12.5116 91.5864 12.5116C92.3911 12.5116 92.6704 12.9719 92.6376 13.9415C92.6376 13.9415 91.9478 13.7278 91.1757 13.7278C89.2537 13.7278 88.1535 14.7635 88.1535 16.1113C88.1535 17.7386 89.2047 18.7081 90.7156 18.7081C91.8985 18.7081 92.6538 18.1821 93.0974 17.7548V18.1631C93.0974 18.3605 93.2617 18.5248 93.4588 18.5248H93.5931C93.6068 18.5276 93.6231 18.5276 93.6396 18.5276H94.1978C94.3949 18.5276 94.5592 18.363 94.5592 18.1659V14.0733C94.5592 12.0021 94.0666 10.7693 91.7014 10.7693ZM77.9118 10.7693C76.4583 10.7693 75.7521 11.5502 75.47 11.865V11.2953C75.47 11.0979 75.3057 10.9336 75.1086 10.9336H74.2492C74.0684 10.9336 73.8878 11.0817 73.8878 11.2953V18.1659C73.8878 18.363 74.0684 18.5276 74.2492 18.5276H75.4647C75.8261 18.5276 75.941 18.4451 75.941 18.1659V13.8265C76.1216 13.3005 76.5979 12.6431 77.5835 12.6431C78.5034 12.6431 78.8976 13.2512 78.8976 14.2376V18.1659C78.8976 18.363 79.0619 18.5276 79.259 18.5276H80.5893C80.7702 18.5276 80.9507 18.363 80.9507 18.1659V14.2376C80.9507 12.3966 80.3266 10.7693 77.9118 10.7693ZM59.8274 16.8344C58.8747 16.8344 58.2503 16.4071 58.2503 16.4071V13.695C58.4146 13.2677 58.9403 12.6431 59.9258 12.6431C61.1087 12.6431 61.7165 13.6785 61.7165 14.747C61.7165 15.8152 61.0756 16.8344 59.8274 16.8344ZM60.205 10.7693C58.6448 10.7693 57.7798 11.835 57.7276 11.9006V11.2953C57.7276 11.0979 57.5634 10.9336 57.3662 10.9336H56.5585C56.3614 10.9336 56.1974 11.0979 56.1974 11.2953V21.2559C56.1974 21.4367 56.3614 21.6176 56.5585 21.6176H57.8891C58.0697 21.6176 58.2503 21.4367 58.2503 21.2559V18.3961C58.5954 18.5276 59.3182 18.7081 60.0735 18.7081C62.3404 18.7081 63.835 16.9659 63.835 14.747C63.835 12.4457 62.2748 10.7693 60.205 10.7693ZM114.373 13.7766C114.34 13.0373 113.749 12.4622 112.911 12.4622C111.992 12.4622 111.4 13.0207 111.302 13.7766H114.373ZM112.961 10.769C114.932 10.769 116.443 12.232 116.443 14.2863C116.443 14.4013 116.426 14.6643 116.41 14.7792C116.394 14.9769 116.213 15.1244 116.049 15.1244H111.187C111.203 16.0614 111.975 16.8832 113.076 16.8832C113.832 16.8832 114.357 16.6039 114.702 16.3244C114.883 16.1763 115.08 16.1601 115.194 16.3244L115.835 17.179C115.967 17.327 115.983 17.5078 115.802 17.6721C115.145 18.2309 114.209 18.7076 112.977 18.7076C110.711 18.7076 109.134 16.8997 109.134 14.7302C109.134 12.5934 110.711 10.769 112.961 10.769ZM100.106 16.8344C99.1204 16.8344 98.5947 16.21 98.4304 15.7824V13.0704C98.4304 13.0704 99.0545 12.6431 100.007 12.6431C101.256 12.6431 101.896 13.6622 101.896 14.7305C101.896 15.799 101.288 16.8344 100.106 16.8344ZM100.286 10.7693C99.5308 10.7693 98.7752 10.9502 98.4304 11.0979V8.20503C98.4304 8.02447 98.2661 7.84363 98.069 7.84363H96.7386C96.5577 7.84363 96.3772 8.02447 96.3772 8.20503V18.1659C96.3772 18.363 96.5577 18.5276 96.7386 18.5276H97.3134C97.3246 18.5276 97.3355 18.5276 97.3464 18.5248H97.4998C97.6994 18.5248 97.8634 18.3605 97.8634 18.1631V17.6015L97.8719 17.574C97.8719 17.574 98.7424 18.7081 100.401 18.7081C102.471 18.7081 103.966 16.9003 103.966 14.7305C103.966 12.5116 102.537 10.7693 100.286 10.7693ZM88.6652 7.84363H80.9395C80.759 7.84363 80.6275 7.99167 80.6275 8.15596V9.50372C80.6275 9.66802 80.759 9.81606 80.9395 9.81606H83.7264V18.2152C83.7264 18.3795 83.8742 18.5276 84.0385 18.5276H85.5662C85.7303 18.5276 85.878 18.3795 85.878 18.2152V9.81606H88.6652C88.8455 9.81606 88.9773 9.66802 88.9773 9.50372V8.15596C88.9773 7.99167 88.8455 7.84363 88.6652 7.84363ZM70.2735 13.7766C70.2407 13.0373 69.6497 12.4622 68.8117 12.4622C67.892 12.4622 67.301 13.0207 67.2023 13.7766H70.2735ZM68.8613 10.769C70.832 10.769 72.3433 12.232 72.3433 14.2863C72.3433 14.4013 72.3267 14.6643 72.3107 14.7792C72.2939 14.9769 72.1134 15.1244 71.9491 15.1244H67.0871C67.1036 16.0614 67.8755 16.8832 68.9762 16.8832C69.7319 16.8832 70.2576 16.6039 70.6021 16.3244C70.783 16.1763 70.9801 16.1601 71.095 16.3244L71.7354 17.179C71.8672 17.327 71.8832 17.5078 71.7026 17.6721C71.0457 18.2309 70.1095 18.7076 68.8776 18.7076C66.611 18.7076 65.0345 16.8997 65.0345 14.7302C65.0345 12.5934 66.611 10.769 68.8613 10.769Z" fill="white"/>
</svg>
