<svg width="120" height="29" viewBox="0 0 120 29" fill="none" xmlns="http://www.w3.org/2000/svg">
<path fill-rule="evenodd" clip-rule="evenodd" d="M22.455 8.61C23.4937 7.72125 24.63 7.02 27.0825 6.77625V10.9425L25.5 11.1862C23.25 11.5875 22.56 11.9362 22.56 13.9462V22.9462H17.8612V6.92625H22.455V8.61Z" fill="#0078FF"/>
<mask id="mask0" mask-type="alpha" maskUnits="userSpaceOnUse" x="0" y="0" width="120" height="29">
<path fill-rule="evenodd" clip-rule="evenodd" d="M0 28.635H119.899V0H0V28.635Z" fill="white"/>
</mask>
<g mask="url(#mask0)">
<path fill-rule="evenodd" clip-rule="evenodd" d="M29.1525 22.9612H33.8587V6.96375H29.1525V22.9612Z" fill="#0078FF"/>
<path fill-rule="evenodd" clip-rule="evenodd" d="M65.8464 19.0051C65.3038 19.8912 64.6509 20.7053 63.9035 21.4276C62.2404 22.9411 60.0624 23.7631 57.8135 23.7263C53.0285 23.7263 49.6652 20.6513 49.6652 15.3409C49.6652 11.4338 51.5777 6.40881 57.9335 6.40881C58.8939 6.40881 61.6835 6.50256 63.7498 8.73381C65.8164 10.9651 65.9739 14.1638 66.0377 15.9938H54.5102C54.4798 18.0151 55.6352 20.0326 58.1814 20.0326C60.7277 20.0326 61.6802 18.3226 62.2689 17.1751L65.8464 18.9863V19.0051ZM61.1248 13.0051C61.031 12.3226 60.9073 11.4226 60.2252 10.7101C59.5963 10.1221 58.7645 9.79956 57.9035 9.81006C56.99 9.80781 56.1178 10.1903 55.5002 10.8638C54.986 11.4732 54.6542 12.2153 54.5435 13.0051H61.1248Z" fill="#0078FF"/>
<path fill-rule="evenodd" clip-rule="evenodd" d="M68.1075 22.9613H73.0013V0H68.1075V22.9613Z" fill="#0078FF"/>
<path fill-rule="evenodd" clip-rule="evenodd" d="M76.0088 22.9612H80.715V6.96375H76.0088V22.9612Z" fill="#0078FF"/>
<path fill-rule="evenodd" clip-rule="evenodd" d="M88.8748 8.41883C89.3091 7.88746 89.8562 7.45958 90.4764 7.16633C91.4068 6.78946 92.4009 6.59333 93.4048 6.58883C94.3982 6.56746 95.3826 6.78608 96.2736 7.22633C97.9686 8.11508 98.3964 9.55508 98.3964 12.0338V22.9613H93.6902V13.9613C93.6902 12.5213 93.6602 12.0038 93.4727 11.5726C93.0977 10.7176 92.2689 10.3501 91.3464 10.3501C88.8489 10.3501 88.8489 12.3376 88.8489 14.3326V22.9576H84.1014V7.01258H88.8748V8.41883Z" fill="#0078FF"/>
<path fill-rule="evenodd" clip-rule="evenodd" d="M116.475 19.0051C115.929 19.8897 115.275 20.7034 114.529 21.4276C112.867 22.9411 110.69 23.7631 108.443 23.7263C103.654 23.7263 100.286 20.6513 100.286 15.3409C100.286 11.4338 102.202 6.40881 108.566 6.40881C109.523 6.40881 112.316 6.50256 114.379 8.73381C116.441 10.9651 116.599 14.1638 116.659 15.9938H105.139C105.105 18.0151 106.264 20.0326 108.814 20.0326C111.364 20.0326 112.305 18.3226 112.89 17.1751L116.475 18.9863V19.0051ZM111.75 13.0051C111.656 12.3226 111.532 11.4226 110.854 10.7101C110.226 10.1228 109.396 9.80031 108.536 9.81006C107.621 9.80856 106.746 10.1907 106.125 10.8638C105.612 11.4739 105.281 12.2161 105.169 13.0051H111.75Z" fill="#0078FF"/>
<path fill-rule="evenodd" clip-rule="evenodd" d="M47.3324 18.2701C47.3324 18.2251 47.2424 18.2401 47.2087 18.2926C47.1029 18.4808 46.9773 18.6563 46.8337 18.8176C46.2311 19.5282 45.3472 19.9396 44.4149 19.9426C41.8762 19.9426 40.8224 17.2501 40.8224 15.1126C40.8224 13.1626 41.6887 10.2376 44.2612 10.2376C44.9028 10.2376 45.5291 10.4322 46.0574 10.7963C46.5806 11.1593 47.0028 11.6498 47.2837 12.2213C47.3099 12.2738 47.3887 12.2963 47.3999 12.2551C47.7719 10.8964 48.4874 9.65669 49.4774 8.65506C47.9939 7.30544 46.0488 6.57644 44.0437 6.61881C38.6512 6.61881 35.9249 10.5788 35.9249 15.2851C35.9249 21.8851 40.8562 23.7451 43.9537 23.7451C45.6161 23.7511 47.2394 23.2414 48.5999 22.2863C48.8621 22.1033 49.1126 21.9042 49.3499 21.6901C48.3948 20.7623 47.7037 19.5979 47.3474 18.3151" fill="#0078FF"/>
<path fill-rule="evenodd" clip-rule="evenodd" d="M34.0463 2.91763C34.0463 4.32163 32.9078 5.46013 31.5038 5.46013C30.0998 5.46013 28.9613 4.32163 28.9613 2.91763C28.9613 1.51475 30.0972 0.377 31.5001 0.375125C32.9041 0.372875 34.0441 1.5095 34.0463 2.91388V2.91763Z" fill="#0078FF"/>
<path fill-rule="evenodd" clip-rule="evenodd" d="M81.09 2.91762C81.09 4.32162 79.9519 5.46012 78.5475 5.46012C77.1435 5.46012 76.005 4.32162 76.005 2.91762C76.005 1.51325 77.1435 0.375122 78.5475 0.375122H78.5513C79.9534 0.375122 81.09 1.51175 81.09 2.91387V2.91762Z" fill="#0078FF"/>
<path fill-rule="evenodd" clip-rule="evenodd" d="M118.324 5.4375C119.193 5.4375 119.899 6.1425 119.899 7.0125C119.899 7.8825 119.193 8.5875 118.324 8.5875C117.454 8.5875 116.749 7.8825 116.749 7.0125C116.747 6.14475 117.448 5.43937 118.316 5.4375H118.324ZM118.324 8.34375C119.059 8.34787 119.658 7.75537 119.662 7.02C119.667 6.28462 119.074 5.68538 118.339 5.68125C117.603 5.67713 117.004 6.27 117 7.005V7.02C117 7.74525 117.58 8.337 118.305 8.35125L118.324 8.34375ZM117.75 6.09375H118.436C118.845 6.09375 119.047 6.26625 119.047 6.61125C119.067 6.88012 118.866 7.1145 118.597 7.13625L119.115 7.94625H118.807L118.297 7.14H118.02V7.94625H117.75V6.09375ZM118.009 6.89625H118.332C118.586 6.89625 118.766 6.85875 118.766 6.61125C118.766 6.36375 118.594 6.3375 118.354 6.3375H118.009V6.89625Z" fill="#0078FF"/>
<path fill-rule="evenodd" clip-rule="evenodd" d="M118.324 5.4375C119.193 5.4375 119.899 6.1425 119.899 7.0125C119.899 7.8825 119.193 8.5875 118.324 8.5875C117.454 8.5875 116.749 7.8825 116.749 7.0125C116.747 6.14475 117.448 5.43937 118.316 5.4375H118.324ZM118.324 8.34375C119.059 8.34787 119.658 7.75537 119.662 7.02C119.667 6.28462 119.074 5.68538 118.339 5.68125C117.603 5.67713 117.004 6.27 117 7.005V7.02C117 7.74525 117.58 8.337 118.305 8.35125L118.324 8.34375ZM117.75 6.09375H118.436C118.845 6.09375 119.047 6.26625 119.047 6.61125C119.067 6.88012 118.866 7.1145 118.597 7.13625L119.115 7.94625H118.807L118.297 7.14H118.02V7.94625H117.75V6.09375ZM118.009 6.89625H118.332C118.586 6.89625 118.766 6.85875 118.766 6.61125C118.766 6.36375 118.594 6.3375 118.354 6.3375H118.009V6.89625Z" fill="#0078FF"/>
</g>
<mask id="mask1" mask-type="alpha" maskUnits="userSpaceOnUse" x="0" y="6" width="16" height="23">
<path fill-rule="evenodd" clip-rule="evenodd" d="M0 6.5437H15.7762V28.6349H0V6.5437Z" fill="white"/>
</mask>
<g mask="url(#mask1)">
<path fill-rule="evenodd" clip-rule="evenodd" d="M4.23 8.4862C4.38375 8.2987 4.5375 8.1112 4.69125 7.9612C5.4975 7.18495 6.94125 6.5437 8.74875 6.5437C12.7087 6.5437 15.7762 9.5437 15.7762 14.91C15.7762 18.2137 14.3175 23.3441 8.77875 23.3441C6.9825 23.3441 6.05625 22.7587 4.785 21.9862V28.6349H0V6.9862H4.23V8.4862ZM8.00625 9.9112C7.02638 9.91458 6.11138 10.4013 5.56125 11.2125C4.875 12.105 4.57125 13.4962 4.57125 15.0075C4.57125 17.0478 5.09625 18.315 5.69625 18.9937C6.255 19.578 7.02563 19.9117 7.83375 19.9199C10.1512 19.9199 11.175 17.4187 11.175 14.8837C11.175 12.7575 10.5862 10.5037 8.63625 10.0087C8.4255 9.94833 8.20687 9.91683 7.9875 9.91495L8.00625 9.9112Z" fill="#0078FF"/>
</g>
</svg>
