<svg width="121" height="16" viewBox="0 0 121 16" fill="none" xmlns="http://www.w3.org/2000/svg">
<path fill-rule="evenodd" clip-rule="evenodd" d="M106.021 15.8609C107.624 15.8609 109.07 14.8951 109.683 13.414C110.296 11.9329 109.956 10.2282 108.823 9.09507C107.689 7.96192 105.984 7.62351 104.503 8.23767C103.022 8.85184 102.058 10.2976 102.059 11.9006C102.059 12.9514 102.476 13.9591 103.219 14.7018C103.963 15.4446 104.971 15.8616 106.021 15.8609ZM106.021 13.9251C107.142 13.9251 108.051 13.0165 108.051 11.8955C108.051 10.7746 107.142 9.86595 106.021 9.86595C104.9 9.86595 103.992 10.7746 103.992 11.8955C103.992 13.0165 104.9 13.9251 106.021 13.9251Z" fill="#1390F4"/>
<path fill-rule="evenodd" clip-rule="evenodd" d="M92.4662 15.8609C93.0013 15.8619 93.4842 15.5402 93.6894 15.0461C93.8947 14.5519 93.7817 13.9828 93.4034 13.6045C93.025 13.2261 92.4559 13.1132 91.9618 13.3184C91.4676 13.5237 91.1459 14.0066 91.147 14.5416C91.147 14.8915 91.286 15.2271 91.5334 15.4745C91.7808 15.7219 92.1163 15.8609 92.4662 15.8609Z" fill="#1390F4"/>
<path fill-rule="evenodd" clip-rule="evenodd" d="M120.333 10.4215C120.17 9.3614 119.441 8.47501 118.432 8.11105C117.423 7.7471 116.296 7.96385 115.494 8.67601C114.958 8.19912 114.264 7.93635 113.546 7.93775C113.449 7.93776 113.353 7.94284 113.257 7.95297H113.193C113.117 7.95297 113.044 7.97327 112.973 7.98849L112.914 8.00117L112.691 8.05699L112.651 8.07221C112.573 8.09758 112.497 8.12549 112.422 8.15593H112.397C112.316 8.19145 112.237 8.2295 112.161 8.27009C111.962 8.37592 111.777 8.50448 111.608 8.65318V8.67094C111.049 9.16927 110.706 9.86522 110.651 10.6117V10.632V15.8608H112.6V10.6549C112.6 10.41 112.698 10.1753 112.872 10.0026C113.046 9.82992 113.281 9.73327 113.526 9.73394H113.62C113.865 9.73327 114.1 9.82992 114.273 10.0026C114.447 10.1753 114.545 10.41 114.546 10.6549V15.8608H116.497V10.6549C116.497 10.41 116.595 10.1753 116.769 10.0026C116.943 9.82992 117.178 9.73327 117.423 9.73394H117.516C118.026 9.73393 118.44 10.1454 118.442 10.6549V15.8608H120.391V10.6549C120.382 10.5748 120.362 10.4963 120.333 10.4215Z" fill="#1390F4"/>
<path d="M99.9783 13.0423C99.9247 13.1186 99.8653 13.1907 99.8007 13.2579C99.2401 13.8462 98.3745 14.0272 97.6252 13.7129C96.8758 13.3985 96.3984 12.6541 96.4253 11.842C96.4522 11.0298 96.9778 10.3186 97.7463 10.0545C98.5148 9.79046 99.3665 10.0283 99.8869 10.6524C99.955 10.7322 100.017 10.817 100.072 10.9061L101.739 9.80759C101.608 9.59813 101.457 9.40112 101.29 9.21901C100.191 8.03187 98.479 7.63402 96.9688 8.21457C95.4585 8.79512 94.4542 10.237 94.4331 11.8548C94.412 13.4727 95.3784 14.9402 96.873 15.5599C98.3676 16.1797 100.089 15.8266 101.219 14.6685C101.375 14.5122 101.517 14.3424 101.643 14.1611L99.9783 13.0423Z" fill="#1390F4"/>
<path d="M38.8518 13.0346C38.5957 13.153 38.317 13.2144 38.0349 13.2148C37.5036 13.2141 36.9945 13.0017 36.6202 12.6246C36.2459 12.2475 36.0374 11.7368 36.0408 11.2055V7.97586H39.3541V5.33485H36.0408V2.70398H33.3998V11.2055C33.3978 12.439 33.8867 13.6226 34.7587 14.4951C35.6307 15.3675 36.814 15.8571 38.0476 15.8558C38.8498 15.8536 39.6374 15.6401 40.3309 15.2367L38.8518 13.0346Z" fill="#1390F4"/>
<path fill-rule="evenodd" clip-rule="evenodd" d="M40.4218 8.78449C41.1793 6.70739 43.1534 5.32448 45.3643 5.32214C48.2707 5.32354 50.626 7.68003 50.626 10.5864V10.7209V15.8634H47.985V15.1606C46.0659 16.2584 43.6655 16.0408 41.9751 14.6157C40.2847 13.1907 39.6643 10.8616 40.4218 8.78449ZM42.9265 11.5951C43.3348 12.581 44.2972 13.2234 45.3643 13.2224C46.8161 13.221 47.9935 12.0459 47.9977 10.594C48.0008 9.52697 47.3602 8.56331 46.3752 8.15307C45.3901 7.74283 44.2549 7.96693 43.4997 8.72073C42.7444 9.47453 42.5181 10.6093 42.9265 11.5951Z" fill="#1390F4"/>
<path fill-rule="evenodd" clip-rule="evenodd" d="M65.4183 8.78826C66.1768 6.7111 68.1526 5.3294 70.3639 5.32971C73.2693 5.33251 75.6231 7.68859 75.6231 10.594V10.7259V15.8633H72.9821V15.1606C71.0638 16.2607 68.6625 16.0447 66.9714 14.6199C65.2802 13.1952 64.6598 10.8654 65.4183 8.78826ZM67.9266 11.6013C68.3352 12.5866 69.2973 13.2284 70.3639 13.2274C71.8177 13.226 72.9959 12.0478 72.9973 10.594C72.9983 9.52738 72.3565 8.56528 71.3713 8.15664C70.3861 7.748 69.2517 7.97336 68.4975 8.72756C67.7433 9.48176 67.5179 10.6161 67.9266 11.6013Z" fill="#1390F4"/>
<path fill-rule="evenodd" clip-rule="evenodd" d="M51.4556 15.8558H54.0966V1.37207H51.4556V15.7467V15.8558Z" fill="#1390F4"/>
<path d="M32.5904 15.8558H29.9494V9.96233C29.9494 8.85262 29.0498 7.95303 27.9401 7.95303C26.8304 7.95303 25.9308 8.85262 25.9308 9.96233V15.8558H23.2898V9.96233C23.2898 7.39403 25.3718 5.31201 27.9401 5.31201C30.5084 5.31201 32.5904 7.39403 32.5904 9.96233V15.8558Z" fill="#1390F4"/>
<path d="M62.1972 12.2659C61.4934 13.11 60.3364 13.4228 59.3032 13.0486C58.2699 12.6743 57.5817 11.693 57.5817 10.5941C57.5817 9.49511 58.2699 8.51383 59.3032 8.13956C60.3364 7.76528 61.4934 8.07816 62.1972 8.92218C62.2905 9.03056 62.3753 9.14591 62.4509 9.26721L64.6607 7.80336C64.4866 7.52355 64.2861 7.26104 64.0619 7.01943C62.5298 5.364 60.1129 4.86931 58.0535 5.78962C55.9942 6.70993 54.7505 8.84049 54.9617 11.0862C55.173 13.332 56.7921 15.1932 58.987 15.7134C61.1818 16.2336 63.4641 15.2969 64.6607 13.3848L62.4408 11.9209C62.3683 12.0418 62.2869 12.1571 62.1972 12.2659Z" fill="#1390F4"/>
<path fill-rule="evenodd" clip-rule="evenodd" d="M11.2619 13.2833L12.6776 15.8532L9.6611 15.8634L7.23319 11.4592C6.91809 11.5132 6.59898 11.5403 6.27928 11.5403H3.14102V15.8532H0.500001V5.77374C0.4981 3.05258 2.39789 0.700085 5.05846 0.129039C7.71902 -0.442007 10.4169 0.923686 11.5318 3.40595C12.6467 5.88822 11.8755 8.81204 9.6814 10.4215L11.2619 13.2833ZM3.14101 5.77374V8.88917H6.27928C7.55066 8.88914 8.69641 8.12203 9.18078 6.94654C9.66516 5.77104 9.39245 4.41945 8.49017 3.52373C7.58789 2.62802 6.23434 2.36519 5.06241 2.85813C3.89049 3.35108 3.13176 4.50239 3.14101 5.77374Z" fill="#1390F4"/>
<path fill-rule="evenodd" clip-rule="evenodd" d="M87.0598 9.54374C86.6654 9.48883 86.281 9.37776 85.9181 9.21393C85.8723 9.18185 85.829 9.14622 85.7887 9.10738L85.7659 9.08201C85.5911 8.90942 85.4988 8.67018 85.5122 8.42493L85.53 8.32345C85.53 8.34374 85.53 8.35896 85.53 8.37419C85.53 8.34882 85.53 8.32345 85.5427 8.29808V8.31076C85.5647 8.21237 85.6024 8.11815 85.6543 8.03169C85.7991 7.8268 86.0094 7.67737 86.2505 7.60801C86.416 7.56506 86.587 7.5471 86.7579 7.55474C87.3996 7.59052 88.0292 7.74448 88.615 8.00886L89.7389 6.01224C89.0107 5.69765 87.3871 5.104 86.0222 5.37546C84.3249 5.58603 83.0894 6.74797 82.9778 8.23719C82.8915 9.42958 83.5486 10.5205 84.6572 11.1344C84.7393 11.1816 84.824 11.224 84.9109 11.2613L84.9845 11.2968C85.348 11.4673 85.7343 11.5844 86.1312 11.6444C86.3873 11.665 86.6415 11.7031 86.8923 11.7585C87.3503 11.863 87.6767 12.2681 87.6813 12.7378L87.6636 12.8418C87.6636 12.8215 87.6636 12.8038 87.6636 12.7886C87.6612 12.8152 87.6561 12.8416 87.6484 12.8672V12.8418C87.6267 12.94 87.5881 13.0335 87.5342 13.1184C87.3891 13.3323 87.1722 13.4871 86.9228 13.5547C86.757 13.5963 86.5862 13.6142 86.4154 13.608C85.5774 13.5433 84.7628 13.3011 84.0255 12.8977L82.7291 14.7852L83.0488 14.9704C83.0488 14.9704 85.3321 16.1501 87.1511 15.7873C88.8484 15.5793 90.0839 14.4173 90.1955 12.9256C90.335 11.274 89.0234 9.83296 87.0598 9.54374Z" fill="#1390F4"/>
<path d="M82.9271 5.70778C81.4916 5.09001 79.8415 5.23633 78.5371 6.09707C77.2328 6.9578 76.4493 8.41731 76.4526 9.98009V15.8558H79.0937V9.98009C79.0937 8.87236 79.9902 7.97358 81.0979 7.97078C81.3593 7.97179 81.6179 8.02438 81.859 8.12554" fill="#1390F4"/>
<path fill-rule="evenodd" clip-rule="evenodd" d="M19.1089 12.5399L19.0201 12.6236C18.3228 13.2124 17.387 13.4344 16.4996 13.2216C15.6121 13.0087 14.8788 12.3864 14.5245 11.5454H22.341C22.3982 11.2315 22.427 10.9131 22.4272 10.594C22.4194 7.88931 20.3624 5.63109 17.6702 5.3717C14.9779 5.11231 12.5276 6.93624 12.0035 9.58968C11.4795 12.2431 13.0524 14.8617 15.6411 15.6453C18.2298 16.4288 20.9909 15.1222 22.0264 12.6236C22.0372 12.5997 22.0465 12.5751 22.0543 12.55L19.1089 12.5399ZM17.163 7.76016C18.2963 7.76077 19.3125 8.45839 19.7203 9.51576H14.6057C15.0135 8.45839 16.0297 7.76077 17.163 7.76016Z" fill="#1390F4"/>
</svg>
