<?xml version="1.0" encoding="UTF-8"?>
<svg width="107px" height="54px" viewBox="0 0 107 54" version="1.1" xmlns="http://www.w3.org/2000/svg" xmlns:xlink="http://www.w3.org/1999/xlink">
    <!-- Generator: Sketch 60.1 (88133) - https://sketch.com -->
    <title>Group 23 Copy</title>
    <desc>Created with Sketch.</desc>
    <defs>
        <polygon id="path-1" points="0.156606593 0.0201422222 15.9609143 0.0201422222 15.9609143 16 0.156606593 16"></polygon>
    </defs>
    <g id="Bangkok" stroke="none" stroke-width="1" fill="none" fill-rule="evenodd">
        <g id="Group-22" transform="translate(-40.000000, -24.000000)">
            <g id="Group-23-Copy" transform="translate(40.000000, 24.000000)">
                <path d="M31,38 C26.5887235,38 23,41.5895404 23,46.0014243 C23,50.4104596 26.5887235,54 31,54 C35.4112765,54 39,50.4104596 39,46.0014243 C39,41.5895404 35.4112765,38 31,38" id="Fill-1" fill="#FDB812"></path>
                <path d="M9.000089,38 C4.58886157,38 1,41.5895404 1,46.0014243 C1,50.4104596 4.58886157,54 9.000089,54 C13.4111384,54 17,50.4104596 17,46.0014243 C17,41.5895404 13.4111384,38 9.000089,38" id="Fill-3" fill="#FF2938"></path>
                <g id="Group-7" transform="translate(46.000000, 38.000000)">
                    <mask id="mask-2" fill="white">
                        <use xlink:href="#path-1"></use>
                    </mask>
                    <g id="Clip-6"></g>
                    <path d="M8.05884835,0.0201422222 C3.70157363,0.0201422222 0.156606593,3.60449778 0.156606593,8.01000889 C0.156606593,12.4126756 3.70157363,16.0000533 8.05884835,16.0000533 C12.4159473,16.0000533 15.9609143,12.4126756 15.9609143,8.01000889 C15.9609143,3.60449778 12.4159473,0.0201422222 8.05884835,0.0201422222" id="Fill-5" fill="#00B057" mask="url(#mask-2)"></path>
                </g>
                <path d="M98.0015133,38 C93.5895005,38 90,41.5895404 90,46.0014243 C90,50.4104596 93.5895005,54 98.0015133,54 C102.413348,54 106,50.4104596 106,46.0014243 C106,41.5895404 102.413348,38 98.0015133,38" id="Fill-8" fill="#00AAE0"></path>
                <path d="M75.999911,38 C71.5888616,38 68,41.5895404 68,46.0014243 C68,50.4104596 71.5888616,54 75.999911,54 C80.4111384,54 84,50.4104596 84,46.0014243 C84,41.5895404 80.4111384,38 75.999911,38" id="Fill-10" fill="#AF38B1"></path>
                <path d="M-3.65384615e-05,15.9070816 C-3.65384615e-05,10.8670816 4.22600192,7.06383883 9.458675,7.06383883 C14.6915308,7.06383883 18.9173865,10.8323049 18.9173865,15.8724796 L18.9173865,23.4181495 C18.9173865,24.3090621 18.2754058,24.960732 17.2716942,24.960732 C16.2318096,24.960732 15.6228962,24.3090621 15.6228962,23.4181495 L15.6228962,21.5987515 L15.4087808,21.5987515 C14.3659731,23.3459748 12.2558769,24.7503243 9.20856923,24.7503243 C4.15657885,24.7503243 -3.65384615e-05,20.9470816 -3.65384615e-05,15.9070816 M15.6952423,15.9070816 C15.6952423,12.516266 13.0094827,9.94436311 9.458675,9.94436311 C5.91097308,9.94436311 3.22521346,12.516266 3.22521346,15.9070816 C3.22521346,19.3036641 5.91097308,21.8698 9.458675,21.8698 C13.0094827,21.8698 15.6952423,19.3036641 15.6952423,15.9070816" id="Fill-12" fill="#615F5D"></path>
                <path d="M25.4778,30.8106596 C24.6607003,30.393625 24.2822139,29.6594094 24.6262925,28.8194666 C24.9990442,27.9474853 25.8161439,27.633152 26.6017899,28.0501865 C27.7945955,28.6110383 29.259536,28.9958564 30.7276045,28.9958564 C34.5781562,28.9958564 36.8633244,26.6933559 36.8633244,22.7787848 L36.8633244,21.8037464 L36.6568772,21.8037464 C35.6705187,23.5834852 33.657833,25.0136484 30.7592319,25.0136484 C25.9565557,25.0136484 22,21.1400154 22,16.0067352 C22,10.873455 26.0253714,7 31.0028673,7 C35.9744548,7 40,10.8382127 40,15.9714929 L40,22.5703566 C40,28.1589395 36.4188027,32 30.6243809,32 C28.8209228,32 27.01173,31.6123341 25.4778,30.8106596 M36.9321401,16.0067352 C36.9321401,12.5531626 34.3746633,9.93365894 31.0028673,9.93365894 C27.6253367,9.93365894 25.0678599,12.5531626 25.0678599,16.0067352 C25.0678599,19.4633337 27.6253367,22.0798115 31.0028673,22.0798115 C34.3746633,22.0798115 36.9321401,19.4633337 36.9321401,16.0067352" id="Fill-15" fill="#615F5D"></path>
                <path d="M45,16 C45,10.8706598 48.9866728,7 54,7 C58.9790822,7 63,10.8706598 63,16 C63,21.1293402 58.9790822,25 54,25 C48.9866728,25 45,21.1293402 45,16 M59.9341175,16 C59.9341175,12.5490781 57.378607,9.93158508 54,9.93158508 C50.6241743,9.93158508 48.0688376,12.5490781 48.0688376,16 C48.0688376,19.4567911 50.6241743,22.0684149 54,22.0684149 C57.378607,22.0684149 59.9341175,19.4567911 59.9341175,16" id="Fill-17" fill="#615F5D"></path>
                <path d="M67,16.0289821 C67,10.9161596 70.9566913,7.05796423 75.7591473,7.05796423 C78.6577205,7.05796423 80.636153,8.48242778 81.6567357,10.2550738 L81.8631809,10.2550738 L81.8631809,1.56487115 C81.8631809,0.661085819 82.4738275,0 83.4315035,0 C84.4178525,0 85,0.661085819 85,1.56487115 L85,16.064084 C85,21.1769065 80.9744936,25 76.0027804,25 C71.0255064,25 67,21.1418046 67,16.0289821 M81.9319959,16.0289821 C81.9319959,12.589173 79.3745438,9.98010892 76.0027804,9.98010892 C72.6254562,9.98010892 70.0678303,12.589173 70.0678303,16.0289821 C70.0678303,19.4746415 72.6254562,22.0778553 76.0027804,22.0778553 C79.3745438,22.0778553 81.9319959,19.4746415 81.9319959,16.0289821" id="Fill-19" fill="#615F5D"></path>
                <path d="M89,15.89419 C89,10.8251538 93.0209178,7 98,7 C102.978908,7 107,10.7901767 107,15.8593887 L107,23.4485304 C107,24.3445757 106.389153,25 105.431162,25 C104.44449,25 103.865106,24.3445757 103.865106,23.4485304 L103.865106,21.6186505 L103.661548,21.6186505 C102.669139,23.3759398 100.661548,24.78838 97.7618496,24.78838 C92.9520802,24.78838 89,20.9632262 89,15.89419 M103.931162,15.89419 C103.931162,12.4838395 101.375652,9.89711942 98,9.89711942 C94.6243481,9.89711942 92.0688376,12.4838395 92.0688376,15.89419 C92.0688376,19.3103408 94.6243481,21.8912606 98,21.8912606 C101.375652,21.8912606 103.931162,19.3103408 103.931162,15.89419" id="Fill-21" fill="#615F5D"></path>
            </g>
        </g>
    </g>
</svg>